<?xml version="1.0" encoding="UTF-8"?>
<svg xmlns="http://www.w3.org/2000/svg" id="Layer_1" data-name="Layer 1" viewBox="0 0 24 24">
  <path d="m12.5,2h-.05c-.232-1.14-1.243-2-2.45-2h-3c-1.207,0-2.218.86-2.45,2h-.05C2.019,2,0,4.019,0,6.5v13c0,2.481,2.019,4.5,4.5,4.5h8c2.481,0,4.5-2.019,4.5-4.5V6.5c0-2.481-2.019-4.5-4.5-4.5Zm3.5,17.5c0,1.93-1.57,3.5-3.5,3.5H4.5c-1.93,0-3.5-1.57-3.5-3.5V6.5c0-1.93,1.57-3.5,3.5-3.5h.5c.276,0,.5-.224.5-.5,0-.827.673-1.5,1.5-1.5h3c.827,0,1.5.673,1.5,1.5,0,.276.224.5.5.5h.5c1.93,0,3.5,1.57,3.5,3.5v13ZM21.5,0c-1.379,0-2.5,1.121-2.5,2.5v17.55c0,1.068.416,2.073,1.172,2.829l.975.975c.098.098.226.146.354.146s.256-.049.354-.146l.975-.975c.756-.756,1.172-1.761,1.172-2.829V2.5c0-1.379-1.121-2.5-2.5-2.5Zm1.5,20.05c0,.802-.313,1.556-.879,2.122l-.621.621-.621-.621c-.566-.566-.879-1.32-.879-2.122V2.5c0-.827.673-1.5,1.5-1.5s1.5.673,1.5,1.5v17.55ZM9.162,5.323c.195.195.195.512,0,.707l-2.525,2.525c-.287.287-.667.444-1.072.444h0c-.404,0-.785-.158-1.07-.444l-1.347-1.346c-.195-.195-.195-.512,0-.707s.512-.195.707,0l1.347,1.346c.098.098.227.151.364.151s.268-.054.365-.151l2.525-2.525c.195-.195.512-.195.707,0Zm0,6c.195.195.195.512,0,.707l-2.525,2.525c-.287.287-.667.444-1.072.444h0c-.404,0-.785-.158-1.07-.444l-1.347-1.346c-.195-.195-.195-.512,0-.707s.512-.195.707,0l1.347,1.346c.098.098.227.151.364.151s.268-.054.365-.151l2.525-2.525c.195-.195.512-.195.707,0Zm0,6c.195.195.195.512,0,.707l-2.525,2.525c-.287.287-.667.444-1.072.444h0c-.404,0-.785-.158-1.07-.444l-1.347-1.346c-.195-.195-.195-.512,0-.707s.512-.195.707,0l1.347,1.346c.098.098.227.151.364.151s.268-.054.365-.151l2.525-2.525c.195-.195.512-.195.707,0Z"/>
</svg>
